REM MD5 eee8c5c1ad1bb23afe8e6925dc126c7b
FILE "Batman & Robin (USA).bin" BINARY
  TRACK 01 MODE2/2352
    INDEX 01 00:00:00
  TRACK 02 AUDIO
    INDEX 00 45:20:45
    INDEX 01 45:22:45
  TRACK 03 AUDIO
    INDEX 00 46:41:24
    INDEX 01 46:43:24
REM LEADOUT 52:43:50
